<?xml version="1.0" standalone="no"?>
<!DOCTYPE svg PUBLIC "-//W3C//DTD SVG 20010904//EN"
 "http://www.w3.org/TR/2001/REC-SVG-20010904/DTD/svg10.dtd">
<svg version="1.0" xmlns="http://www.w3.org/2000/svg"
 width="260.000000pt" height="260.000000pt" viewBox="0 0 260.000000 260.000000"
 preserveAspectRatio="xMidYMid meet">
<metadata>
Created by potrace 1.14, written by Peter Selinger 2001-2017
</metadata>
<g transform="translate(0.000000,260.000000) scale(0.100000,-0.100000)"
fill="#000000" stroke="none">
<path d="M1623 2473 c-41 -37 -48 -66 -59 -255 -3 -62 -7 -114 -8 -115 -1 -1
-85 -4 -186 -6 -214 -5 -323 -28 -457 -94 -92 -45 -198 -145 -237 -222 -134
-263 -7 -518 326 -654 42 -18 169 -53 219 -62 321 -56 513 -119 577 -188 34
-37 37 -93 7 -123 -47 -47 -176 -87 -330 -103 -129 -13 -438 -3 -467 16 -5 2
-8 25 -8 50 0 62 -35 121 -91 152 -42 24 -48 24 -283 24 -268 1 -276 -1 -334
-67 -17 -20 -34 -53 -38 -73 -8 -43 -9 -425 -1 -463 18 -85 65 -133 142 -146
65 -11 436 -7 480 5 45 12 98 60 114 104 6 16 11 49 11 73 l0 45 103 -7 c481
-35 823 50 950 238 42 62 57 114 58 200 5 272 -209 431 -701 521 -266 49 -362
83 -439 153 -73 65 -78 129 -16 201 52 60 137 100 255 118 25 4 54 9 65 11 24
5 275 7 280 2 1 -1 6 -55 9 -118 8 -132 14 -177 28 -205 36 -70 84 -73 184
-13 155 93 537 386 559 428 20 38 19 90 -2 120 -21 30 -11 22 -169 145 -71 55
-138 107 -148 117 -11 10 -23 18 -27 18 -4 0 -14 6 -21 13 -7 7 -53 40 -103
74 -156 105 -202 121 -242 86z"/>
</g>
</svg>
